<?xml version="1.0" encoding="UTF-8" standalone="no"?>
<svg
   width="16"
   height="16"
   fill="currentColor"
   class="bi bi-cloud-arrow-down-fill"
   viewBox="0 0 16 16"
   version="1.1"
   id="svg4"
   sodipodi:docname="cloud.svg"
   inkscape:export-filename="512.png"
   inkscape:export-xdpi="3072"
   inkscape:export-ydpi="3072"
   inkscape:version="1.2.1 (9c6d41e410, 2022-07-14)"
   xmlns:inkscape="http://www.inkscape.org/namespaces/inkscape"
   xmlns:sodipodi="http://sodipodi.sourceforge.net/DTD/sodipodi-0.dtd"
   xmlns="http://www.w3.org/2000/svg"
   xmlns:svg="http://www.w3.org/2000/svg">
  <defs
     id="defs8" />
  <sodipodi:namedview
     id="namedview6"
     pagecolor="#ffffff"
     bordercolor="#666666"
     borderopacity="1.0"
     inkscape:showpageshadow="2"
     inkscape:pageopacity="0.0"
     inkscape:pagecheckerboard="0"
     inkscape:deskcolor="#d1d1d1"
     showgrid="false"
     inkscape:zoom="14.75"
     inkscape:cx="-2.1355932"
     inkscape:cy="8"
     inkscape:window-width="1920"
     inkscape:window-height="1019"
     inkscape:window-x="0"
     inkscape:window-y="24"
     inkscape:window-maximized="1"
     inkscape:current-layer="svg4" />
  <path
     d="M8 2a5.53 5.53 0 0 0-3.594 1.342c-.766.66-1.321 1.52-1.464 2.383C1.266 6.095 0 7.555 0 9.318 0 11.366 1.708 13 3.781 13h8.906C14.502 13 16 11.57 16 9.773c0-1.636-1.242-2.969-2.834-3.194C12.923 3.999 10.69 2 8 2zm2.354 6.854-2 2a.5.5 0 0 1-.708 0l-2-2a.5.5 0 1 1 .708-.708L7.5 9.293V5.5a.5.5 0 0 1 1 0v3.793l1.146-1.147a.5.5 0 0 1 .708.708z"
     id="path2"
     style="fill:#ff4500;fill-opacity:1" />
</svg>
